<?xml version="1.0" encoding="UTF-8"?>
<svg width="36px" height="36px" viewBox="0 0 36 36" version="1.1" xmlns="http://www.w3.org/2000/svg" xmlns:xlink="http://www.w3.org/1999/xlink">
    <!-- Generator: sketchtool 49 (51002) - http://www.bohemiancoding.com/sketch -->
    <title>1C6A1318-930F-435A-B036-A1405130E515</title>
    <desc>Created with sketchtool.</desc>
    <defs></defs>
    <g id="Symbols" stroke="none" stroke-width="1" fill="none" fill-rule="evenodd">
        <g id="Mob-Footer" transform="translate(-28.000000, -80.000000)" fill="#4A575D" fill-rule="nonzero">
            <g id="Facebook-Copy_White" transform="translate(28.000000, 80.000000)">
                <path d="M0,18 C0,8.05887401 8.05887401,0 18,0 C27.941126,0 36,8.05887401 36,18 C36,27.941126 27.941126,36 18,36 C8.05887401,36 0,27.941126 0,18 Z M19.2761663,27.9836075 L19.2761663,18.1906572 L21.9794489,18.1906572 L22.3376922,14.8159523 L19.2761663,14.8159523 L19.2807592,13.12688 C19.2807592,12.246705 19.3643876,11.7750871 20.6285731,11.7750871 L22.3185553,11.7750871 L22.3185553,8.4 L19.61489,8.4 C16.3673531,8.4 15.2243043,10.037095 15.2243043,12.7901739 L15.2243043,14.8163345 L13.2,14.8163345 L13.2,18.1910394 L15.2243043,18.1910394 L15.2243043,27.9836075 L19.2761663,27.9836075 Z" id="Combined-Shape"></path>
            </g>
        </g>
    </g>
</svg>