<?xml version="1.0" encoding="UTF-8"?>
<svg width="36px" height="36px" viewBox="0 0 36 36" version="1.1" xmlns="http://www.w3.org/2000/svg" xmlns:xlink="http://www.w3.org/1999/xlink">
    <!-- Generator: sketchtool 49 (51002) - http://www.bohemiancoding.com/sketch -->
    <title>8C85E82F-02ED-4736-83B2-8EE3B46756B2</title>
    <desc>Created with sketchtool.</desc>
    <defs></defs>
    <g id="Symbols" stroke="none" stroke-width="1" fill="none" fill-rule="evenodd">
        <g id="Mob-Footer" transform="translate(-256.000000, -80.000000)" fill="#4A575D" fill-rule="nonzero">
            <g id="RSS-Copy_White" transform="translate(256.000000, 80.000000)">
                <path d="M0,18 C0,8.05887401 8.05887401,0 18,0 C27.941126,0 36,8.05887401 36,18 C36,27.941126 27.941126,36 18,36 C8.05887401,36 0,27.941126 0,18 Z M10.80018,22.8 C10.80018,24.1254 11.8747685,25.2 13.2001543,25.2 C14.5255401,25.2 15.6001286,24.1254 15.6001286,22.8 C15.6001286,21.4746 14.5255401,20.4 13.2001543,20.4 C11.8747685,20.4 10.80018,21.4746 10.80018,22.8 Z M27.6,25.2 C27.6,15.9366 20.0634807,8.4 10.80018,8.4 L10.80018,11.5998 C18.2994996,11.5998 24.4002343,17.7006 24.4002343,25.2 L27.6,25.2 Z M22.00008,25.2 C22.00008,19.0242 16.9757338,13.9998 10.8,13.9998 L10.8,17.2002 C15.2111527,17.2002 18.8003143,20.7888 18.8003143,25.2 L22.00008,25.2 Z" id="Combined-Shape"></path>
            </g>
        </g>
    </g>
</svg>