<?xml version="1.0" encoding="UTF-8"?>
<svg width="36px" height="36px" viewBox="0 0 36 36" version="1.1" xmlns="http://www.w3.org/2000/svg" xmlns:xlink="http://www.w3.org/1999/xlink">
    <!-- Generator: sketchtool 49 (51002) - http://www.bohemiancoding.com/sketch -->
    <title>E77C9190-7670-489C-A739-09915D04C234</title>
    <desc>Created with sketchtool.</desc>
    <defs></defs>
    <g id="Symbols" stroke="none" stroke-width="1" fill="none" fill-rule="evenodd">
        <g id="Mob-Footer" transform="translate(-199.000000, -80.000000)" fill="#4A575D" fill-rule="nonzero">
            <g id="Telegram_White" transform="translate(199.000000, 80.000000)">
                <path d="M15.0062573,21.6616901 L14.7,26.25 C15.15,26.25 15.348825,26.0442 15.6,25.8 L17.762033,23.6976932 L22.26,27.02085 C23.087775,27.477585 23.68521,27.24111 23.8914,26.252325 L26.84415,12.337875 C27.14646,11.125845 26.382135,10.576125 25.59024,10.935645 L8.25174,17.621295 C7.068225,18.096 7.075125,18.756285 8.03601,19.050495 L12.48546,20.43924 L22.78641,13.94049 C23.272695,13.645605 23.719005,13.8041415 23.35269,14.12925 L15.006,21.6615 L15.0062573,21.6616901 Z M18,36 C8.0588745,36 0,27.9411255 0,18 C0,8.0588745 8.0588745,0 18,0 C27.9411255,0 36,8.0588745 36,18 C36,27.9411255 27.9411255,36 18,36 Z" id="Combined-Shape"></path>
            </g>
        </g>
    </g>
</svg>