<?xml version="1.0" encoding="UTF-8"?>
<svg width="36px" height="36px" viewBox="0 0 36 36" version="1.1" xmlns="http://www.w3.org/2000/svg" xmlns:xlink="http://www.w3.org/1999/xlink">
    <!-- Generator: sketchtool 49 (51002) - http://www.bohemiancoding.com/sketch -->
    <title>11318630-A815-4EA4-9DDB-93C83D776AD2</title>
    <desc>Created with sketchtool.</desc>
    <defs></defs>
    <g id="Symbols" stroke="none" stroke-width="1" fill="none" fill-rule="evenodd">
        <g id="Mob-Footer" transform="translate(-85.000000, -80.000000)" fill="#4A575D" fill-rule="nonzero">
            <g id="Youtube-Copy_White" transform="translate(85.000000, 80.000000)">
                <path d="M0,17.704918 C0,7.92676132 7.93821618,0 17.7305032,0 C27.5227902,0 35.4610063,7.92676132 35.4610063,17.704918 C35.4610063,27.4830747 27.5227902,35.4098361 17.7305032,35.4098361 C7.93821618,35.4098361 0,27.4830747 0,17.704918 Z M26.9586885,14.1411219 C26.9586885,14.1411219 26.7739672,12.8113061 26.208,12.2257046 C25.4897705,11.4567635 24.6847869,11.453145 24.3159344,11.4085163 C21.6731803,11.2131148 17.7090492,11.2131148 17.7090492,11.2131148 L17.7007869,11.2131148 C17.7007869,11.2131148 13.7366557,11.2131148 11.0939016,11.4085163 C10.724459,11.453145 9.92006557,11.4567635 9.2012459,12.2257046 C8.63527869,12.8113061 8.45114754,14.1411219 8.45114754,14.1411219 C8.45114754,14.1411219 8.26229508,15.7031277 8.26229508,17.2645305 L8.26229508,18.7288355 C8.26229508,20.2908414 8.45114754,21.8522441 8.45114754,21.8522441 C8.45114754,21.8522441 8.63527869,23.1820599 9.2012459,23.7676614 C9.92006557,24.5366025 10.8637377,24.5124788 11.2839344,24.5926899 C12.7947541,24.7410503 17.704918,24.7868852 17.704918,24.7868852 C17.704918,24.7868852 21.6731803,24.7808543 24.3159344,24.5854528 C24.6847869,24.540221 25.4897705,24.5366025 26.208,23.7676614 C26.7739672,23.1820599 26.9586885,21.8522441 26.9586885,21.8522441 C26.9586885,21.8522441 27.147541,20.2908414 27.147541,18.7288355 L27.147541,17.2645305 C27.147541,15.7031277 26.9586885,14.1411219 26.9586885,14.1411219 Z" id="Combined-Shape"></path>
                <polygon id="Path" points="15.7550164 20.5031294 15.7544262 15.0807377 20.8569836 17.8012815"></polygon>
            </g>
        </g>
    </g>
</svg>